<svg width="14" height="14" viewBox="0 0 14 14" fill="none" xmlns="http://www.w3.org/2000/svg">
<path d="M4.68266 11.2728C4.68266 11.3307 4.61774 11.377 4.53589 11.377C4.44274 11.3857 4.37782 11.3394 4.37782 11.2728C4.37782 11.2149 4.44274 11.1686 4.5246 11.1686C4.60927 11.1599 4.68266 11.2062 4.68266 11.2728ZM3.80484 11.1425C3.78508 11.2004 3.84153 11.267 3.92621 11.2844C3.9996 11.3133 4.08427 11.2844 4.10121 11.2265C4.11814 11.1686 4.06452 11.102 3.97984 11.0759C3.90645 11.0557 3.8246 11.0846 3.80484 11.1425ZM5.05242 11.0933C4.97056 11.1136 4.91411 11.1686 4.92258 11.2351C4.93105 11.293 5.00444 11.3307 5.08911 11.3104C5.17097 11.2901 5.22742 11.2351 5.21895 11.1772C5.21048 11.1222 5.13427 11.0846 5.05242 11.0933ZM6.90968 0C2.99476 0 0 3.04834 0 7.06358C0 10.274 1.97016 13.0213 4.78427 13.9882C5.14556 14.0548 5.27258 13.8261 5.27258 13.6379C5.27258 13.4584 5.26411 12.4684 5.26411 11.8604C5.26411 11.8604 3.28831 12.2947 2.87339 10.9978C2.87339 10.9978 2.55161 10.1553 2.08871 9.93823C2.08871 9.93823 1.44234 9.48373 2.13387 9.49241C2.13387 9.49241 2.83669 9.55031 3.22339 10.2393C3.84153 11.3567 4.87742 11.0354 5.28105 10.8443C5.34597 10.3811 5.52944 10.0598 5.73266 9.86875C4.15484 9.68926 2.5629 9.45478 2.5629 6.66987C2.5629 5.87377 2.77742 5.47427 3.22903 4.96477C3.15565 4.7766 2.91573 4.00077 3.30242 2.99913C3.89234 2.81096 5.25 3.78075 5.25 3.78075C5.81452 3.61864 6.42137 3.53469 7.02258 3.53469C7.62379 3.53469 8.23065 3.61864 8.79516 3.78075C8.79516 3.78075 10.1528 2.80806 10.7427 2.99913C11.1294 4.00366 10.8895 4.7766 10.8161 4.96477C11.2677 5.47717 11.5444 5.87667 11.5444 6.66987C11.5444 9.46346 9.88185 9.68637 8.30403 9.86875C8.56371 10.0974 8.78387 10.5317 8.78387 11.212C8.78387 12.1876 8.7754 13.3947 8.7754 13.6321C8.7754 13.8203 8.90524 14.049 9.26371 13.9824C12.0863 13.0213 14 10.274 14 7.06358C14 3.04834 10.8246 0 6.90968 0ZM2.74355 9.98454C2.70685 10.0135 2.71532 10.0801 2.76331 10.1351C2.80847 10.1814 2.87339 10.2017 2.91008 10.164C2.94677 10.1351 2.93831 10.0685 2.89032 10.0135C2.84516 9.96717 2.78024 9.94691 2.74355 9.98454ZM2.43871 9.75006C2.41895 9.78769 2.44718 9.83401 2.50363 9.86296C2.54879 9.89191 2.60524 9.88322 2.625 9.84269C2.64476 9.80506 2.61653 9.75874 2.56008 9.72979C2.50363 9.71242 2.45847 9.72111 2.43871 9.75006ZM3.35323 10.7806C3.30806 10.8183 3.325 10.9051 3.38992 10.9601C3.45484 11.0267 3.53669 11.0354 3.57339 10.9891C3.61008 10.9514 3.59314 10.8646 3.53669 10.8096C3.4746 10.743 3.38992 10.7343 3.35323 10.7806ZM3.03145 10.3551C2.98629 10.384 2.98629 10.4593 3.03145 10.5259C3.07661 10.5925 3.15282 10.6214 3.18952 10.5925C3.23468 10.5548 3.23468 10.4796 3.18952 10.413C3.15 10.3464 3.07661 10.3175 3.03145 10.3551Z" fill="white"/>
</svg>
